<?xml version="1.0" encoding="utf-8"?>
<!-- Generator: Adobe Illustrator 23.0.3, SVG Export Plug-In . SVG Version: 6.00 Build 0)  -->
<svg version="1.1" id="Layer_1" xmlns="http://www.w3.org/2000/svg" xmlns:xlink="http://www.w3.org/1999/xlink" x="0px" y="0px"
	 viewBox="0 0 1045 979" style="enable-background:new 0 0 1045 979;" xml:space="preserve">
<script type="text/javascript">
	document.onload = function() {

	}
</script>
<style type="text/css">
	.st0{opacity:0.6;}
	.st1{fill:#F1F48D;}
	.st2{opacity:0.3;}
	.st3{fill:#656FA5;}
</style>
<g class="st0">
	<path class="st1" d="M624.5,25.9c51.06,0,92.6,41.54,92.6,92.6s-41.54,92.6-92.6,92.6c-51.06,0-92.6-41.54-92.6-92.6
		S573.44,25.9,624.5,25.9 M624.5,10C564.58,10,516,58.58,516,118.5S564.58,227,624.5,227S733,178.42,733,118.5S684.42,10,624.5,10
		L624.5,10z"/>
</g>
<g class="st2">
	<path class="st3" d="M461.5,100c47.21,0,92.97,9.23,136.02,27.44c41.61,17.6,78.99,42.81,111.11,74.93
		c32.12,32.12,57.33,69.5,74.93,111.11C801.77,356.53,811,402.29,811,449.5s-9.23,92.97-27.44,136.02
		c-17.6,41.61-42.81,78.99-74.93,111.11c-32.12,32.12-69.5,57.33-111.11,74.93C554.47,789.77,508.71,799,461.5,799
		s-92.97-9.23-136.02-27.44c-41.61-17.6-78.99-42.81-111.11-74.93c-32.12-32.12-57.33-69.5-74.93-111.11
		C121.23,542.47,112,496.71,112,449.5s9.23-92.97,27.44-136.02c17.6-41.61,42.81-78.99,74.93-111.11
		c32.12-32.12,69.5-57.33,111.11-74.93C368.53,109.23,414.29,100,461.5,100 M461.5,40C235.34,40,52,223.34,52,449.5
		S235.34,859,461.5,859S871,675.66,871,449.5S687.66,40,461.5,40L461.5,40z"/>
</g>
<g class="st0">
	<path class="st1" d="M911,475.87c38.12,0,69.13,31.01,69.13,69.13s-31.01,69.13-69.13,69.13s-69.13-31.01-69.13-69.13
		S872.88,475.87,911,475.87 M911,464c-44.74,0-81,36.26-81,81c0,44.74,36.26,81,81,81s81-36.26,81-81C992,500.26,955.74,464,911,464
		L911,464z"/>
</g>
<g class="st0">
	<path class="st3" d="M447.5,683.49c34.99,0,67.89,13.63,92.64,38.37c24.74,24.74,38.37,57.64,38.37,92.64s-13.63,67.89-38.37,92.64
		c-24.74,24.74-57.64,38.37-92.64,38.37s-67.89-13.63-92.64-38.37c-24.74-24.74-38.37-57.64-38.37-92.64s13.63-67.89,38.37-92.64
		C379.61,697.12,412.51,683.49,447.5,683.49 M447.5,661C362.72,661,294,729.72,294,814.5S362.72,968,447.5,968S601,899.28,601,814.5
		S532.28,661,447.5,661L447.5,661z"/>
</g>
<g class="st0">
	<path class="st3" d="M927.5,214.9c51.06,0,92.6,41.54,92.6,92.6s-41.54,92.6-92.6,92.6s-92.6-41.54-92.6-92.6
		S876.44,214.9,927.5,214.9 M927.5,199C867.58,199,819,247.58,819,307.5S867.58,416,927.5,416S1036,367.42,1036,307.5
		S987.42,199,927.5,199L927.5,199z"/>
</g>
<g class="st0">
	<path class="st3" d="M124.5,181.9c51.06,0,92.6,41.54,92.6,92.6s-41.54,92.6-92.6,92.6s-92.6-41.54-92.6-92.6
		S73.44,181.9,124.5,181.9 M124.5,166C64.58,166,16,214.58,16,274.5S64.58,383,124.5,383S233,334.42,233,274.5S184.42,166,124.5,166
		L124.5,166z"/>
</g>
<g class="st0">
	<path class="st1" d="M207.5,479.9c51.06,0,92.6,41.54,92.6,92.6c0,51.06-41.54,92.6-92.6,92.6s-92.6-41.54-92.6-92.6
		C114.9,521.44,156.44,479.9,207.5,479.9 M207.5,464C147.58,464,99,512.58,99,572.5C99,632.42,147.58,681,207.5,681
		S316,632.42,316,572.5C316,512.58,267.42,464,207.5,464L207.5,464z"/>
</g>
<g class="st0">
	<path class="st1" d="M94.5,627.42c27.06,0,49.08,22.02,49.08,49.08s-22.01,49.08-49.08,49.08s-49.08-22.02-49.08-49.08
		S67.44,627.42,94.5,627.42 M94.5,619C62.74,619,37,644.74,37,676.5S62.74,734,94.5,734s57.5-25.74,57.5-57.5S126.26,619,94.5,619
		L94.5,619z"/>
</g>
</svg>
